<svg width="46" height="47" viewBox="0 0 46 47" fill="none" xmlns="http://www.w3.org/2000/svg">
<rect y="0.399902" width="46" height="46" rx="4" fill="#EDECF6"/>
<path d="M33.1072 18.505C32.8637 18.7494 32.5742 18.9433 32.2555 19.0754C31.9368 19.2075 31.595 19.2752 31.25 19.2747C31.0714 19.2743 30.8934 19.2561 30.7184 19.2203L27.8525 24.5425C28.1968 24.8867 28.4386 25.3198 28.5508 25.7935C28.6631 26.2672 28.6414 26.7628 28.4882 27.2249C28.335 27.687 28.0564 28.0974 27.6833 28.4102C27.3103 28.723 26.8577 28.9259 26.376 28.9963C25.8943 29.0667 25.4025 29.0017 24.9556 28.8086C24.5087 28.6156 24.1243 28.302 23.8453 27.9031C23.5663 27.5041 23.4038 27.0354 23.3759 26.5494C23.348 26.0634 23.4557 25.5792 23.6872 25.1509L21.2441 22.7078C20.8618 22.9144 20.4345 23.0232 20 23.0247C19.8214 23.0244 19.6434 23.0062 19.4684 22.9703L16.6025 28.2915C16.9696 28.6587 17.2196 29.1264 17.3208 29.6356C17.4221 30.1448 17.3701 30.6726 17.1714 31.1522C16.9727 31.6318 16.6363 32.0418 16.2046 32.3302C15.7729 32.6187 15.2654 32.7726 14.7462 32.7726C14.2271 32.7726 13.7196 32.6187 13.2879 32.3302C12.8562 32.0418 12.5198 31.6318 12.3211 31.1522C12.1224 30.6726 12.0704 30.1448 12.1717 29.6356C12.2729 29.1264 12.5229 28.6587 12.89 28.2915C13.1977 27.9841 13.577 27.7579 13.9938 27.6334C14.4106 27.5089 14.8519 27.4899 15.2778 27.5781L18.1437 22.2559C17.6523 21.763 17.3763 21.0953 17.3763 20.3992C17.3763 19.7031 17.6523 19.0354 18.1437 18.5425C18.5896 18.0964 19.1811 17.8257 19.8102 17.78C20.4392 17.7343 21.0637 17.9165 21.5693 18.2935C22.075 18.6704 22.428 19.2168 22.5639 19.8327C22.6997 20.4486 22.6092 21.0928 22.3091 21.6475L24.7522 24.0906C25.297 23.7976 25.9276 23.7056 26.5334 23.8309L29.3994 18.5087C29.1556 18.265 28.9622 17.9756 28.8303 17.6571C28.6983 17.3386 28.6304 16.9972 28.6304 16.6525C28.6304 16.3077 28.6983 15.9664 28.8303 15.6479C28.9622 15.3294 29.1556 15.04 29.3994 14.7962C29.8917 14.3039 30.5594 14.0273 31.2556 14.0273C31.9519 14.0273 32.6196 14.3039 33.1119 14.7962C33.6042 15.2885 33.8808 15.9562 33.8808 16.6525C33.8808 17.3487 33.6042 18.0164 33.1119 18.5087L33.1072 18.505Z" fill="url(#paint0_linear_1442_11201)"/>
<defs>
<linearGradient id="paint0_linear_1442_11201" x1="23.001" y1="14.0273" x2="23.001" y2="32.7726" gradientUnits="userSpaceOnUse">
<stop stop-color="#42389E"/>
<stop offset="1" stop-color="#0F1026"/>
</linearGradient>
</defs>
</svg>
