<svg width="46" height="47" viewBox="0 0 46 47" fill="none" xmlns="http://www.w3.org/2000/svg">
<rect y="0.399902" width="46" height="46" rx="4" fill="#EDECF6"/>
<path d="M21.5 13.3999C22.751 13.3999 23.94 13.6699 25.009 14.1559C24.4931 14.6134 24.1506 15.2345 24.039 15.9149C22.7531 15.3693 21.3258 15.2524 19.9683 15.5816C18.6108 15.9107 17.3955 16.6684 16.5023 17.7424C15.6092 18.8163 15.0858 20.1494 15.0097 21.5441C14.9335 22.9389 15.3087 24.321 16.0796 25.4859C16.8505 26.6507 17.9761 27.5362 19.2897 28.0111C20.6032 28.4861 22.0349 28.5253 23.3725 28.123C24.71 27.7206 25.8824 26.898 26.7159 25.7771C27.5494 24.6563 27.9997 23.2967 28 21.8999L27.995 21.6309C28.531 22.1109 29.234 22.3959 29.986 22.3999C29.8865 24.1354 29.2549 25.7981 28.177 27.1619L31.829 30.8139C32.0111 31.0025 32.1119 31.2551 32.1097 31.5173C32.1074 31.7795 32.0022 32.0303 31.8168 32.2157C31.6314 32.4011 31.3806 32.5063 31.1184 32.5086C30.8562 32.5109 30.6036 32.4101 30.415 32.2279L26.763 28.5759C25.6985 29.4148 24.4488 29.987 23.1181 30.2448C21.7875 30.5025 20.4145 30.4383 19.1137 30.0576C17.813 29.6768 16.6221 28.9905 15.6405 28.0559C14.6589 27.1213 13.915 25.9655 13.4709 24.685C13.0268 23.4044 12.8954 22.0362 13.0876 20.6946C13.2798 19.3529 13.7901 18.0766 14.5758 16.9723C15.3615 15.8679 16.4 14.9674 17.6045 14.346C18.809 13.7246 20.1446 13.4002 21.5 13.3999ZM21.5 16.3999C22.427 16.3999 23.301 16.6299 24.068 17.0349C24.1775 17.5403 24.4158 18.0088 24.7597 18.395C25.1036 18.7812 25.5416 19.0719 26.031 19.2389L26.379 19.3579C26.9338 20.4225 27.1251 21.6394 26.9237 22.8229C26.7222 24.0064 26.139 25.0914 25.2632 25.9125C24.3874 26.7335 23.2669 27.2455 22.0729 27.3702C20.8789 27.4948 19.6769 27.2254 18.6503 26.6031C17.6237 25.9807 16.829 25.0395 16.3873 23.9232C15.9457 22.8068 15.8815 21.5767 16.2044 20.4204C16.5273 19.2641 17.2197 18.2453 18.1759 17.5194C19.1321 16.7934 20.2995 16.4003 21.5 16.3999ZM30 12.3999C30.1871 12.3999 30.3704 12.4524 30.5291 12.5514C30.6879 12.6504 30.8157 12.7919 30.898 12.9599L30.946 13.0769L31.076 13.4549C31.2132 13.8571 31.4343 14.2255 31.7246 14.5358C32.0149 14.8462 32.3678 15.0913 32.76 15.2549L32.945 15.3249L33.323 15.4539C33.5102 15.5178 33.6742 15.6357 33.7944 15.7928C33.9145 15.9499 33.9854 16.1391 33.9981 16.3365C34.0107 16.5339 33.9645 16.7306 33.8653 16.9017C33.7662 17.0728 33.6185 17.2107 33.441 17.2979L33.323 17.3459L32.945 17.4759C32.5428 17.6131 32.1744 17.8342 31.864 18.1245C31.5537 18.4148 31.3086 18.7677 31.145 19.1599L31.075 19.3449L30.946 19.7229C30.882 19.91 30.764 20.074 30.6068 20.1941C30.4497 20.3141 30.2604 20.3849 30.0631 20.3974C29.8657 20.4099 29.669 20.3637 29.498 20.2644C29.3269 20.1652 29.1891 20.0175 29.102 19.8399L29.054 19.7229L28.924 19.3449C28.7868 18.9427 28.5657 18.5743 28.2754 18.264C27.9851 17.9536 27.6322 17.7086 27.24 17.5449L27.055 17.4749L26.677 17.3459C26.4898 17.282 26.3257 17.1641 26.2056 17.007C26.0854 16.8499 26.0145 16.6607 26.0019 16.4633C25.9893 16.2659 26.0355 16.0693 26.1346 15.8981C26.2338 15.727 26.3815 15.5891 26.559 15.5019L26.677 15.4539L27.055 15.3239C27.4572 15.1867 27.8256 14.9656 28.1359 14.6753C28.4462 14.385 28.6913 14.0321 28.855 13.6399L28.925 13.4549L29.054 13.0769C29.1214 12.8795 29.2488 12.7081 29.4184 12.5867C29.588 12.4653 29.7914 12.4 30 12.3999Z" fill="url(#paint0_linear_1442_11189)"/>
<defs>
<linearGradient id="paint0_linear_1442_11189" x1="23.5009" y1="12.3999" x2="23.5009" y2="32.5086" gradientUnits="userSpaceOnUse">
<stop stop-color="#42389E"/>
<stop offset="1" stop-color="#0F1026"/>
</linearGradient>
</defs>
</svg>
