<svg width="46" height="47" viewBox="0 0 46 47" fill="none" xmlns="http://www.w3.org/2000/svg">
<rect y="0.399902" width="46" height="46" rx="4" fill="#EDECF6"/>
<path d="M27.577 19.9259L17.658 16.6189C17.358 16.5189 17.208 16.4689 17.104 16.5439C17 16.6189 17 16.7769 17 17.0939V24.3999L27.577 20.8739C28.165 20.6779 28.459 20.5799 28.459 20.3999C28.459 20.2199 28.165 20.1219 27.577 19.9259Z" fill="url(#paint0_linear_1442_11166)"/>
<path d="M17 24.3999V17.0939C17 16.7769 17 16.6189 17.104 16.5439C17.208 16.4689 17.358 16.5189 17.658 16.6189L27.577 19.9259C28.165 20.1219 28.459 20.2199 28.459 20.3999C28.459 20.5799 28.165 20.6779 27.577 20.8739L17 24.3999ZM17 24.3999V30.3999" stroke="url(#paint1_linear_1442_11166)" stroke-width="2" stroke-linecap="round"/>
<defs>
<linearGradient id="paint0_linear_1442_11166" x1="22.7295" y1="16.5078" x2="22.7295" y2="24.3999" gradientUnits="userSpaceOnUse">
<stop stop-color="#42389E"/>
<stop offset="1" stop-color="#0F1026"/>
</linearGradient>
<linearGradient id="paint1_linear_1442_11166" x1="22.7295" y1="16.5078" x2="22.7295" y2="30.3999" gradientUnits="userSpaceOnUse">
<stop stop-color="#42389E"/>
<stop offset="1" stop-color="#0F1026"/>
</linearGradient>
</defs>
</svg>
