<svg width="46" height="47" viewBox="0 0 46 47" fill="none" xmlns="http://www.w3.org/2000/svg">
<rect y="0.399902" width="46" height="46" rx="4" fill="#EDECF6"/>
<path d="M31 20.3999V18.3999C31 17.2999 30.1 16.3999 29 16.3999H26C26 14.7399 24.66 13.3999 23 13.3999C21.34 13.3999 20 14.7399 20 16.3999H17C15.9 16.3999 15 17.2999 15 18.3999V20.3999C13.34 20.3999 12 21.7399 12 23.3999C12 25.0599 13.34 26.3999 15 26.3999V30.3999C15 31.4999 15.9 32.3999 17 32.3999H29C30.1 32.3999 31 31.4999 31 30.3999V26.3999C32.66 26.3999 34 25.0599 34 23.3999C34 21.7399 32.66 20.3999 31 20.3999ZM18.5 22.8999C18.5 22.0699 19.17 21.3999 20 21.3999C20.83 21.3999 21.5 22.0699 21.5 22.8999C21.5 23.7299 20.83 24.3999 20 24.3999C19.17 24.3999 18.5 23.7299 18.5 22.8999ZM26 28.3999H20C19.45 28.3999 19 27.9499 19 27.3999C19 26.8499 19.45 26.3999 20 26.3999H26C26.55 26.3999 27 26.8499 27 27.3999C27 27.9499 26.55 28.3999 26 28.3999ZM26 24.3999C25.17 24.3999 24.5 23.7299 24.5 22.8999C24.5 22.0699 25.17 21.3999 26 21.3999C26.83 21.3999 27.5 22.0699 27.5 22.8999C27.5 23.7299 26.83 24.3999 26 24.3999Z" fill="url(#paint0_linear_1442_11178)"/>
<defs>
<linearGradient id="paint0_linear_1442_11178" x1="23" y1="13.3999" x2="23" y2="32.3999" gradientUnits="userSpaceOnUse">
<stop stop-color="#42389E"/>
<stop offset="1" stop-color="#0F1026"/>
</linearGradient>
</defs>
</svg>
